<?xml version="1.0" encoding="utf-8"?>
<!-- Generator: Adobe Illustrator 25.0.0, SVG Export Plug-In . SVG Version: 6.00 Build 0)  -->
<svg version="1.1" id="Layer_1" xmlns="http://www.w3.org/2000/svg" xmlns:xlink="http://www.w3.org/1999/xlink" x="0px" y="0px"
	 viewBox="0 0 595.3 841.9" style="enable-background:new 0 0 595.3 841.9;" xml:space="preserve">
<style type="text/css">
	.st0{fill:url(#SVGID_1_);}
	.st1{fill:url(#SVGID_2_);}
	.st2{fill:url(#SVGID_3_);}
	.st3{fill:url(#SVGID_4_);}
	.st4{fill:url(#SVGID_5_);}
	.st5{fill:url(#SVGID_6_);}
	.st6{fill:url(#SVGID_7_);}
	.st7{fill:url(#SVGID_8_);}
	.st8{fill:url(#SVGID_9_);}
	.st9{fill:url(#SVGID_10_);}
	.st10{fill:url(#SVGID_11_);}
	.st11{fill:url(#SVGID_12_);}
	.st12{fill:url(#SVGID_13_);}
	.st13{fill:#3C2415;}
	.st14{font-family:'Oswald-Medium';}
	.st15{font-size:38.1737px;}
</style>
<g>
	<g>
		<linearGradient id="SVGID_1_" gradientUnits="userSpaceOnUse" x1="297.0006" y1="480.8535" x2="297.0006" y2="607.8611">
			<stop  offset="1.118836e-07" style="stop-color:#61100E"/>
			<stop  offset="0.1373" style="stop-color:#6A1110"/>
			<stop  offset="0.3586" style="stop-color:#811514"/>
			<stop  offset="0.6363" style="stop-color:#A81B1C"/>
			<stop  offset="0.9568" style="stop-color:#DD2426"/>
			<stop  offset="1" style="stop-color:#E52528"/>
		</linearGradient>
		<path class="st0" d="M366.9,634.4l-64.5-49.1c-2.2-1.6-5.2-1.7-7.4-0.1L227,634.8c-4.1,3-9.8,0.1-9.8-5V442.5
			c0-3.4,2.8-6.2,6.2-6.2h147.2c3.4,0,6.2,2.8,6.2,6.2v187C376.7,634.6,370.9,637.5,366.9,634.4z"/>
		<linearGradient id="SVGID_2_" gradientUnits="userSpaceOnUse" x1="297.0006" y1="538.2003" x2="297.0006" y2="221.0218">
			<stop  offset="0" style="stop-color:#956D13"/>
			<stop  offset="0.5" style="stop-color:#E6BE69"/>
			<stop  offset="1" style="stop-color:#FFEC94"/>
		</linearGradient>
		<path class="st1" d="M305,209.6l15.3,17.5l19.9-11.9c5.6-3.3,12.8-1,15.3,5l9.1,21.3l22.6-5.2c6.3-1.4,12.4,3,13,9.5l2.1,23.1
			l23.1,2.1c6.4,0.6,10.9,6.7,9.5,13l-5.2,22.6l21.3,9.1c5.9,2.5,8.3,9.8,5,15.3l-11.9,19.9l17.5,15.3c4.9,4.3,4.9,11.8,0,16.1
			l-17.5,15.3l11.9,19.9c3.3,5.6,1,12.8-5,15.3l-21.3,9.1l5.2,22.6c1.4,6.3-3,12.4-9.5,13l-23.1,2.1l-2.1,23.1
			c-0.6,6.4-6.7,10.9-13,9.5l-22.6-5.2l-9.1,21.3c-2.5,5.9-9.8,8.3-15.3,5l-19.9-11.9L305,538.8c-4.3,4.9-11.8,4.9-16.1,0
			l-15.3-17.5l-19.9,11.9c-5.6,3.3-12.8,1-15.3-5l-9.1-21.3l-22.6,5.2c-6.3,1.4-12.4-3-13-9.5l-2.1-23.1l-23.1-2.1
			c-6.4-0.6-10.9-6.7-9.5-13l5.2-22.6l-21.3-9.1c-5.9-2.5-8.3-9.8-5-15.3l11.9-19.9l-17.5-15.3c-4.9-4.3-4.9-11.8,0-16.1l17.5-15.3
			L138,331c-3.3-5.6-1-12.8,5-15.3l21.3-9.1l-5.2-22.6c-1.4-6.3,3-12.4,9.5-13l23.1-2.1l2.1-23.1c0.6-6.4,6.7-10.9,13-9.5l22.6,5.2
			l9.1-21.3c2.5-5.9,9.8-8.3,15.3-5l19.9,11.9l15.3-17.5C293.2,204.8,300.8,204.8,305,209.6z"/>
		<linearGradient id="SVGID_3_" gradientUnits="userSpaceOnUse" x1="402.8998" y1="494.0428" x2="231.3185" y2="298.9666">
			<stop  offset="0" style="stop-color:#492001"/>
			<stop  offset="1" style="stop-color:#281201"/>
		</linearGradient>
		<path class="st2" d="M306,210.1l15.3,17.5l19.9-11.9c5.6-3.3,12.8-1,15.3,5l9.1,21.3l22.6-5.2c6.3-1.4,12.4,3,13,9.5l2.1,23.1
			l23.1,2.1c6.4,0.6,10.9,6.7,9.5,13l-5.2,22.6l21.3,9.1c6,2.5,8.3,9.8,5,15.3l-11.9,19.9l17.5,15.3c4.9,4.3,4.9,11.8,0,16.1
			L445.1,398l11.9,19.9c3.3,5.6,1,12.8-5,15.3l-21.3,9.1l5.2,22.6c1.4,6.3-3,12.4-9.5,13l-23.1,2.1l-2.1,23.1
			c-0.6,6.4-6.7,10.9-13,9.5l-22.6-5.2l-9.1,21.3c-2.5,5.9-9.8,8.3-15.3,5l-19.9-11.9L306,539.3c-4.3,4.9-11.8,4.9-16.1,0
			l-15.3-17.5l-19.9,11.9c-5.6,3.3-12.8,1-15.3-5l-9.1-21.3l-22.6,5.2c-6.3,1.4-12.4-3-13-9.5l-2.1-23.1l-23.1-2.1
			c-6.4-0.6-10.9-6.7-9.5-13l5.2-22.6l-21.3-9.1c-5.9-2.5-8.3-9.8-5-15.3l11.9-19.9l-17.5-15.3c-4.9-4.3-4.9-11.8,0-16.1l17.5-15.3
			l-11.9-19.9c-3.3-5.6-1-12.8,5-15.3l21.3-9.1l-5.2-22.6c-1.4-6.3,3-12.4,9.5-13l23.1-2.1l2.1-23.1c0.6-6.4,6.7-10.9,13-9.5
			l22.6,5.2l9.1-21.3c2.5-6,9.8-8.3,15.3-5l19.9,11.9l15.3-17.5C294.2,205.3,301.7,205.3,306,210.1z"/>
		<linearGradient id="SVGID_4_" gradientUnits="userSpaceOnUse" x1="401.9433" y1="493.5533" x2="230.3619" y2="298.4771">
			<stop  offset="0" style="stop-color:#956D13"/>
			<stop  offset="0.5" style="stop-color:#E6BE69"/>
			<stop  offset="1" style="stop-color:#FFEC94"/>
		</linearGradient>
		<path class="st3" d="M305,209.6l15.3,17.5l19.9-11.9c5.6-3.3,12.8-1,15.3,5l9.1,21.3l22.6-5.2c6.3-1.4,12.4,3,13,9.5l2.1,23.1
			l23.1,2.1c6.4,0.6,10.9,6.7,9.5,13l-5.2,22.6l21.3,9.1c5.9,2.5,8.3,9.8,5,15.3l-11.9,19.9l17.5,15.3c4.9,4.3,4.9,11.8,0,16.1
			l-17.5,15.3l11.9,19.9c3.3,5.6,1,12.8-5,15.3l-21.3,9.1l5.2,22.6c1.4,6.3-3,12.4-9.5,13l-23.1,2.1l-2.1,23.1
			c-0.6,6.4-6.7,10.9-13,9.5l-22.6-5.2l-9.1,21.3c-2.5,5.9-9.8,8.3-15.3,5l-19.9-11.9L305,538.8c-4.3,4.9-11.8,4.9-16.1,0
			l-15.3-17.5l-19.9,11.9c-5.6,3.3-12.8,1-15.3-5l-9.1-21.3l-22.6,5.2c-6.3,1.4-12.4-3-13-9.5l-2.1-23.1l-23.1-2.1
			c-6.4-0.6-10.9-6.7-9.5-13l5.2-22.6l-21.3-9.1c-5.9-2.5-8.3-9.8-5-15.3l11.9-19.9l-17.5-15.3c-4.9-4.3-4.9-11.8,0-16.1l17.5-15.3
			L138,331c-3.3-5.6-1-12.8,5-15.3l21.3-9.1l-5.2-22.6c-1.4-6.3,3-12.4,9.5-13l23.1-2.1l2.1-23.1c0.6-6.4,6.7-10.9,13-9.5l22.6,5.2
			l9.1-21.3c2.5-5.9,9.8-8.3,15.3-5l19.9,11.9l15.3-17.5C293.2,204.8,300.8,204.8,305,209.6z"/>
		<linearGradient id="SVGID_5_" gradientUnits="userSpaceOnUse" x1="426.998" y1="522.0388" x2="292.4974" y2="369.1209">
			<stop  offset="0" style="stop-color:#492001"/>
			<stop  offset="0.3831" style="stop-color:#461F01"/>
			<stop  offset="0.684" style="stop-color:#3C1A01"/>
			<stop  offset="0.9562" style="stop-color:#2B1301"/>
			<stop  offset="1" style="stop-color:#281201"/>
		</linearGradient>
		<circle class="st4" cx="297" cy="374.2" r="131.4"/>
		<linearGradient id="SVGID_6_" gradientUnits="userSpaceOnUse" x1="323.7145" y1="400.9769" x2="222.851" y2="300.1134">
			<stop  offset="0" style="stop-color:#492001"/>
			<stop  offset="5.651546e-02" style="stop-color:#441E01"/>
			<stop  offset="0.3144" style="stop-color:#341701"/>
			<stop  offset="0.606" style="stop-color:#2B1301"/>
			<stop  offset="1" style="stop-color:#281201"/>
		</linearGradient>
		<path class="st5" d="M297.5,241.6c-73.5,0-133.1,59.6-133.1,133.1c0,73.5,59.6,133.1,133.1,133.1c73.5,0,133.1-59.6,133.1-133.1
			C430.6,301.2,371,241.6,297.5,241.6z M297.5,502.9c-70.8,0-128.2-57.4-128.2-128.2c0-70.8,57.4-128.2,128.2-128.2
			c70.8,0,128.2,57.4,128.2,128.2C425.6,445.5,368.2,502.9,297.5,502.9z"/>
		<linearGradient id="SVGID_7_" gradientUnits="userSpaceOnUse" x1="323.7145" y1="400.977" x2="222.8509" y2="300.1134">
			<stop  offset="0" style="stop-color:#492001"/>
			<stop  offset="5.651546e-02" style="stop-color:#441E01"/>
			<stop  offset="0.3144" style="stop-color:#341701"/>
			<stop  offset="0.606" style="stop-color:#2B1301"/>
			<stop  offset="1" style="stop-color:#281201"/>
		</linearGradient>
		<path class="st6" d="M297.5,257.3c-64.9,0-117.5,52.6-117.5,117.5c0,64.9,52.6,117.5,117.5,117.5c64.9,0,117.5-52.6,117.5-117.5
			C414.9,309.9,362.3,257.3,297.5,257.3z M297.5,487.8c-62.5,0-113.1-50.6-113.1-113.1c0-62.5,50.6-113.1,113.1-113.1
			c62.4,0,113.1,50.6,113.1,113.1C410.5,437.2,359.9,487.8,297.5,487.8z"/>
		<linearGradient id="SVGID_8_" gradientUnits="userSpaceOnUse" x1="297.0009" y1="503.9789" x2="297.0009" y2="253.0015">
			<stop  offset="0" style="stop-color:#956D13"/>
			<stop  offset="8.131993e-02" style="stop-color:#9E761C"/>
			<stop  offset="0.4882" style="stop-color:#C59D46"/>
			<stop  offset="0.8083" style="stop-color:#DDB55F"/>
			<stop  offset="1" style="stop-color:#E6BE69"/>
		</linearGradient>
		<path class="st7" d="M297,241.1c-73.5,0-133.1,59.6-133.1,133.1c0,73.5,59.6,133.1,133.1,133.1s133.1-59.6,133.1-133.1
			C430.1,300.7,370.5,241.1,297,241.1z M297,502.4c-70.8,0-128.2-57.4-128.2-128.2c0-70.8,57.4-128.2,128.2-128.2
			c70.8,0,128.2,57.4,128.2,128.2C425.2,445,367.8,502.4,297,502.4z"/>
		<linearGradient id="SVGID_9_" gradientUnits="userSpaceOnUse" x1="297.0006" y1="488.7155" x2="297.0006" y2="267.265">
			<stop  offset="0" style="stop-color:#956D13"/>
			<stop  offset="8.131993e-02" style="stop-color:#9E761C"/>
			<stop  offset="0.4882" style="stop-color:#C59D46"/>
			<stop  offset="0.8083" style="stop-color:#DDB55F"/>
			<stop  offset="1" style="stop-color:#E6BE69"/>
		</linearGradient>
		<path class="st8" d="M297,256.8c-64.9,0-117.5,52.6-117.5,117.5S232.1,491.7,297,491.7c64.9,0,117.5-52.6,117.5-117.5
			S361.9,256.8,297,256.8z M297,487.3c-62.4,0-113.1-50.6-113.1-113.1c0-62.4,50.6-113.1,113.1-113.1s113.1,50.6,113.1,113.1
			C410.1,436.7,359.5,487.3,297,487.3z"/>
		<linearGradient id="SVGID_10_" gradientUnits="userSpaceOnUse" x1="230.8969" y1="308.1371" x2="326.3737" y2="403.614">
			<stop  offset="0" style="stop-color:#956D13"/>
			<stop  offset="8.131993e-02" style="stop-color:#9E761C"/>
			<stop  offset="0.4882" style="stop-color:#C59D46"/>
			<stop  offset="0.8083" style="stop-color:#DDB55F"/>
			<stop  offset="1" style="stop-color:#E6BE69"/>
		</linearGradient>
		<path class="st9" d="M297,272.8c-56,0-101.5,45.4-101.5,101.5c0,56,45.4,101.5,101.5,101.5c56,0,101.5-45.4,101.5-101.5
			C398.5,318.2,353,272.8,297,272.8z"/>
		<linearGradient id="SVGID_11_" gradientUnits="userSpaceOnUse" x1="218.3589" y1="301.118" x2="243.2774" y2="324.6126">
			<stop  offset="0" style="stop-color:#281201"/>
			<stop  offset="0.394" style="stop-color:#2B1301"/>
			<stop  offset="0.6856" style="stop-color:#341701"/>
			<stop  offset="0.9435" style="stop-color:#441E01"/>
			<stop  offset="1" style="stop-color:#492001"/>
		</linearGradient>
		<path class="st10" d="M196.9,375.1c0-56,45.4-101.5,101.5-101.5c20.1,0,38.8,5.8,54.6,15.9c-16-10.6-35.3-16.8-55.9-16.8
			c-56,0-101.5,45.4-101.5,101.5c0,35.9,18.7,67.5,46.9,85.5C215,441.6,196.9,410.5,196.9,375.1z"/>
		<linearGradient id="SVGID_12_" gradientUnits="userSpaceOnUse" x1="323.7263" y1="400.9652" x2="222.8627" y2="300.1016">
			<stop  offset="0" style="stop-color:#492001"/>
			<stop  offset="5.651546e-02" style="stop-color:#441E01"/>
			<stop  offset="0.3144" style="stop-color:#341701"/>
			<stop  offset="0.606" style="stop-color:#2B1301"/>
			<stop  offset="1" style="stop-color:#281201"/>
		</linearGradient>
		<path class="st11" d="M297.4,500.6L297.4,500.6L297.4,500.6L297.4,500.6L297.4,500.6C297.4,500.6,297.4,500.6,297.4,500.6z
			 M294.7,497.9c0-1.5,1.2-2.7,2.7-2.7l0,0c1.5,0,2.7,1.2,2.7,2.7l0,0c0,1.5-1.2,2.7-2.7,2.7l0,0
			C295.9,500.6,294.7,499.4,294.7,497.9z M284.2,499.9c-1.5-0.1-2.5-1.5-2.4-2.9l0,0c0.1-1.5,1.5-2.5,2.9-2.4l0,0
			c1.5,0.1,2.5,1.5,2.4,2.9l0,0c-0.1,1.4-1.3,2.4-2.6,2.4l0,0C284.4,499.9,284.3,499.9,284.2,499.9z M307.6,497.5
			c-0.2-1.5,0.9-2.8,2.4-2.9l0,0c1.5-0.1,2.8,0.9,2.9,2.4l0,0c0.1,1.5-0.9,2.8-2.4,2.9l0,0c-0.1,0-0.2,0-0.3,0l0,0
			C308.9,499.9,307.8,498.9,307.6,497.5z M271.2,497.9c-1.4-0.3-2.4-1.7-2.1-3.2l0,0c0.3-1.4,1.7-2.4,3.2-2.1l0,0
			c1.4,0.3,2.4,1.7,2.1,3.2l0,0c-0.3,1.3-1.4,2.1-2.6,2.1l0,0C271.6,497.9,271.4,497.9,271.2,497.9z M320.4,495.8
			c-0.3-1.4,0.6-2.9,2.1-3.2l0,0c1.4-0.3,2.9,0.6,3.2,2.1l0,0c0.3,1.4-0.6,2.9-2.1,3.2l0,0c-0.2,0-0.4,0.1-0.6,0.1l0,0
			C321.8,497.9,320.7,497,320.4,495.8z M258.5,494.5c-1.4-0.5-2.2-2-1.7-3.4l0,0c0.5-1.4,2-2.2,3.4-1.7l0,0c1.4,0.5,2.2,2,1.7,3.4
			l0,0c-0.4,1.1-1.4,1.8-2.5,1.8l0,0C259,494.6,258.7,494.6,258.5,494.5z M333,492.7c-0.5-1.4,0.3-2.9,1.7-3.4v0
			c1.4-0.4,2.9,0.3,3.4,1.7l0,0c0.5,1.4-0.3,2.9-1.7,3.4l0,0l0,0l0,0c-0.3,0.1-0.6,0.1-0.8,0.1l0,0
			C334.4,494.6,333.3,493.9,333,492.7z M246.1,489.8c-1.3-0.6-2-2.2-1.4-3.5l0,0c0.6-1.3,2.2-2,3.5-1.4l0,0c1.3,0.6,2,2.2,1.4,3.5
			l0,0c-0.4,1-1.4,1.6-2.4,1.6l0,0C246.9,490,246.5,489.9,246.1,489.8z M345.1,488.4c-0.6-1.3,0-2.9,1.4-3.5l0,0
			c1.3-0.6,2.9,0,3.5,1.4l0,0c0.6,1.3,0,2.9-1.3,3.5l0,0c-0.4,0.1-0.7,0.2-1.1,0.2l0,0C346.5,489.9,345.6,489.3,345.1,488.4z
			 M234.4,483.8c-1.3-0.7-1.7-2.4-1-3.7l0,0c0.7-1.3,2.4-1.7,3.6-1l0,0c1.3,0.7,1.7,2.4,1,3.7l0,0c-0.5,0.9-1.4,1.3-2.3,1.3l0,0
			C235.3,484.1,234.8,484,234.4,483.8z M356.7,482.7c-0.7-1.3-0.3-2.9,1-3.7l0,0c1.3-0.7,2.9-0.3,3.6,1l0,0c0.7,1.3,0.3,2.9-1,3.7
			l0,0c-0.4,0.2-0.9,0.4-1.3,0.4l0,0C358.1,484.1,357.2,483.6,356.7,482.7z M223.3,476.6c-1.2-0.9-1.5-2.5-0.6-3.7l0,0
			c0.9-1.2,2.5-1.5,3.7-0.6l0,0c1.2,0.9,1.5,2.5,0.6,3.7l0,0c-0.5,0.7-1.3,1.1-2.2,1.1l0,0C224.4,477.1,223.8,476.9,223.3,476.6z
			 M367.7,475.9c-0.9-1.2-0.6-2.9,0.6-3.7l0,0c1.2-0.9,2.9-0.6,3.7,0.6l0,0c0.9,1.2,0.6,2.9-0.6,3.7l0,0c-0.5,0.4-1,0.5-1.6,0.5l0,0
			C369,477,368.2,476.6,367.7,475.9z M213.1,468.3c-1.1-1-1.2-2.7-0.2-3.8l0,0c1-1.1,2.7-1.2,3.8-0.2l0,0c1.1,1,1.2,2.7,0.2,3.8l0,0
			c-0.5,0.6-1.3,0.9-2,0.9l0,0C214.2,469,213.6,468.7,213.1,468.3z M377.9,468c-1-1.1-0.9-2.8,0.2-3.8l0,0c1.1-1,2.8-0.9,3.8,0.2
			l0,0c1,1.1,0.9,2.8-0.2,3.8l0,0c-0.5,0.5-1.2,0.7-1.8,0.7l0,0C379.2,468.9,378.4,468.6,377.9,468z M203.8,459
			c-1-1.1-0.9-2.8,0.2-3.8l0,0c1.1-1,2.8-0.9,3.8,0.2l0,0c1,1.1,0.9,2.8-0.2,3.8l0,0c-0.5,0.5-1.2,0.7-1.8,0.7l0,0
			C205,459.8,204.3,459.5,203.8,459z M387.2,459.1c-1.1-1-1.2-2.7-0.2-3.8v0c1-1.1,2.7-1.2,3.8-0.2l0,0c1.1,1,1.2,2.7,0.2,3.8l0,0
			l0,0l0,0c-0.5,0.6-1.3,0.9-2,0.9l0,0C388.4,459.8,387.7,459.5,387.2,459.1z M195.4,448.7L195.4,448.7L195.4,448.7
			c-0.9-1.2-0.6-2.9,0.6-3.7l0,0c1.2-0.9,2.9-0.6,3.7,0.6l0,0c0.9,1.2,0.6,2.9-0.6,3.7l0,0c-0.5,0.3-1,0.5-1.6,0.5l0,0
			C196.8,449.8,196,449.4,195.4,448.7z M395.6,449.2c-1.2-0.9-1.5-2.5-0.6-3.7l0,0c0.9-1.2,2.5-1.5,3.7-0.6l0,0
			c1.2,0.9,1.5,2.5,0.6,3.7l0,0c-0.5,0.7-1.3,1.1-2.2,1.1l0,0C396.6,449.7,396,449.6,395.6,449.2z M188.2,437.7
			c-0.7-1.3-0.3-2.9,1-3.7l0,0c1.3-0.7,2.9-0.3,3.7,1l0,0c0.7,1.3,0.3,2.9-1,3.7l0,0c-0.4,0.2-0.9,0.4-1.3,0.4l0,0
			C189.6,439,188.7,438.5,188.2,437.7z M402.8,438.6c-1.3-0.7-1.7-2.4-1-3.7l0,0c0.7-1.3,2.4-1.7,3.6-1l0,0c1.3,0.7,1.7,2.4,1,3.6
			l0,0c-0.5,0.9-1.4,1.3-2.3,1.3l0,0C403.7,438.9,403.3,438.8,402.8,438.6z M182.2,426L182.2,426L182.2,426c-0.6-1.3,0-2.9,1.3-3.5
			l0,0c1.3-0.6,2.9,0,3.5,1.4l0,0c0.6,1.3,0,2.9-1.3,3.5l0,0c-0.4,0.2-0.7,0.2-1.1,0.2l0,0C183.7,427.5,182.7,426.9,182.2,426z
			 M409,427.2c-1.3-0.6-2-2.2-1.4-3.5l0,0c0.6-1.3,2.2-2,3.5-1.4l0,0c1.3,0.6,1.9,2.2,1.3,3.5l0,0c-0.4,1-1.4,1.6-2.4,1.6l0,0
			C409.7,427.4,409.3,427.3,409,427.2z M177.5,413.6c-0.5-1.4,0.3-2.9,1.7-3.4l0,0c1.4-0.5,2.9,0.3,3.4,1.7l0,0
			c0.4,1.4-0.3,2.9-1.7,3.4l0,0c-0.3,0.1-0.6,0.1-0.8,0.1l0,0C178.9,415.5,177.9,414.8,177.5,413.6z M413.9,415.2
			c-1.4-0.5-2.2-2-1.7-3.4l0,0c0.5-1.4,2-2.2,3.4-1.7l0,0c1.4,0.5,2.2,2,1.7,3.4l0,0c-0.4,1.1-1.4,1.8-2.5,1.8l0,0
			C414.4,415.4,414.1,415.3,413.9,415.2z M174.1,400.9c-0.3-1.4,0.6-2.9,2.1-3.2l0,0c1.4-0.3,2.9,0.6,3.2,2.1l0,0
			c0.3,1.4-0.6,2.9-2.1,3.2l0,0c-0.2,0-0.4,0.1-0.6,0.1l0,0C175.5,403,174.3,402.2,174.1,400.9z M417.5,402.8
			c-1.5-0.3-2.4-1.7-2.1-3.2l0,0c0.3-1.4,1.7-2.4,3.2-2.1l0,0c1.4,0.3,2.4,1.7,2.1,3.2l0,0c-0.3,1.2-1.4,2.1-2.6,2.1l0,0
			C417.8,402.9,417.6,402.9,417.5,402.8z M172,387.9c-0.1-1.5,0.9-2.8,2.4-2.9l0,0c1.5-0.1,2.8,0.9,2.9,2.4l0,0
			c0.2,1.5-0.9,2.8-2.4,2.9l0,0c-0.1,0-0.2,0-0.3,0l0,0C173.3,390.3,172.2,389.2,172,387.9z M419.7,390.1c-1.5-0.2-2.5-1.5-2.4-2.9
			l0,0c0.1-1.5,1.5-2.5,2.9-2.4l0,0c1.5,0.2,2.5,1.5,2.4,2.9l0,0c-0.1,1.4-1.3,2.4-2.6,2.4l0,0C419.9,390.1,419.8,390.1,419.7,390.1
			z M171.3,374.7c0-1.5,1.2-2.7,2.7-2.7l0,0c1.5,0,2.7,1.2,2.7,2.7l0,0c0,1.5-1.2,2.7-2.7,2.7l0,0
			C172.5,377.4,171.3,376.2,171.3,374.7z M418,374.6c0,0,0-0.1,0-0.1l0,0c0-0.1,0-0.1,0-0.1l0,0c0-1.5,1.2-2.7,2.7-2.7l0,0
			c1.5,0,2.7,1.2,2.7,2.7l0,0c0,0,0,0.1,0,0.1l0,0c0,0,0,0.1,0,0.1l0,0c0,1.5-1.2,2.7-2.7,2.7l0,0C419.2,377.2,418,376,418,374.6z
			 M174.4,364.5c-1.5-0.2-2.5-1.5-2.4-2.9l0,0l0,0l0,0c0.1-1.5,1.5-2.5,2.9-2.4l0,0c1.5,0.1,2.5,1.5,2.4,2.9l0,0
			c-0.1,1.4-1.3,2.4-2.7,2.4l0,0C174.6,364.5,174.5,364.5,174.4,364.5z M417.3,361.7c-0.1-1.5,0.9-2.8,2.4-2.9l0,0
			c1.5-0.1,2.8,0.9,2.9,2.4l0,0c0.1,1.5-0.9,2.8-2.4,2.9l0,0c-0.1,0-0.2,0-0.3,0l0,0C418.6,364.1,417.5,363.1,417.3,361.7z
			 M176.1,351.7c-1.4-0.3-2.4-1.7-2.1-3.2l0,0l0,0l0,0c0.3-1.4,1.7-2.4,3.2-2.1l0,0c1.4,0.3,2.4,1.7,2.1,3.2l0,0
			c-0.3,1.3-1.4,2.1-2.6,2.1l0,0C176.4,351.7,176.3,351.7,176.1,351.7z M415.3,349.2c-0.3-1.4,0.6-2.9,2.1-3.2l0,0
			c1.5-0.3,2.9,0.6,3.2,2.1l0,0c0.3,1.4-0.6,2.9-2.1,3.2l0,0c-0.2,0-0.4,0.1-0.6,0.1l0,0C416.7,351.3,415.6,350.5,415.3,349.2z
			 M179.1,339.1c-1.4-0.4-2.2-2-1.7-3.4l0,0c0.4-1.4,2-2.2,3.4-1.7l0,0c1.4,0.4,2.2,2,1.7,3.4l0,0c-0.4,1.1-1.4,1.8-2.5,1.8l0,0
			C179.7,339.3,179.4,339.2,179.1,339.1z M412.1,337L412.1,337c-0.5-1.4,0.3-2.9,1.7-3.4l0,0c1.4-0.5,2.9,0.3,3.4,1.7l0,0
			c0.5,1.4-0.3,2.9-1.7,3.4l0,0c-0.3,0.1-0.6,0.1-0.8,0.1l0,0C413.5,338.9,412.4,338.2,412.1,337z M183.5,327
			c-1.4-0.6-2-2.2-1.4-3.5l0,0c0.6-1.3,2.2-2,3.5-1.4l0,0c1.3,0.6,1.9,2.2,1.3,3.5l0,0c-0.4,1-1.4,1.6-2.4,1.6l0,0
			C184.2,327.2,183.8,327.1,183.5,327z M407.5,325.3c-0.6-1.3,0-2.9,1.3-3.5l0,0c1.3-0.6,2.9,0,3.5,1.3l0,0c0.6,1.4,0,2.9-1.3,3.5
			l0,0c-0.4,0.2-0.7,0.2-1.1,0.2l0,0C408.9,326.8,408,326.2,407.5,325.3z M189.1,315.3c-1.3-0.7-1.7-2.4-1-3.6l0,0l0,0l0,0
			c0.7-1.3,2.4-1.7,3.6-1l0,0c1.3,0.7,1.7,2.4,1,3.7l0,0c-0.5,0.9-1.4,1.3-2.3,1.3l0,0C190,315.7,189.5,315.6,189.1,315.3z
			 M401.7,314c-0.7-1.3-0.3-2.9,1-3.7l0,0c1.3-0.7,2.9-0.3,3.7,1l0,0l0,0l0,0c0.7,1.3,0.3,2.9-1,3.7l0,0c-0.4,0.2-0.9,0.4-1.3,0.4
			l0,0C403.1,315.4,402.2,314.9,401.7,314z M195.9,304.4c-1.2-0.9-1.5-2.5-0.6-3.7l0,0l0,0l0,0c0.9-1.2,2.5-1.5,3.7-0.6l0,0
			c1.2,0.9,1.5,2.5,0.6,3.7l0,0c-0.5,0.7-1.3,1.1-2.2,1.1l0,0C196.9,304.9,196.3,304.7,195.9,304.4z M394.8,303.4
			c-0.9-1.2-0.6-2.9,0.6-3.7l0,0c1.2-0.9,2.9-0.6,3.7,0.6l0,0c0.9,1.2,0.6,2.9-0.6,3.7l0,0c-0.5,0.3-1,0.5-1.6,0.5l0,0
			C396.2,304.5,395.4,304.2,394.8,303.4z M203.8,294.1c-1.1-1-1.2-2.7-0.2-3.8l0,0c1-1.1,2.7-1.2,3.8-0.2l0,0c1.1,1,1.2,2.7,0.2,3.8
			l0,0c-0.5,0.6-1.3,0.9-2,0.9l0,0C204.9,294.8,204.3,294.6,203.8,294.1z M386.9,293.7c-1-1.1-0.9-2.8,0.2-3.8l0,0
			c1.1-1,2.8-0.9,3.8,0.2l0,0c1,1.1,0.9,2.8-0.2,3.8l0,0c-0.5,0.5-1.2,0.7-1.8,0.7l0,0C388.1,294.5,387.4,294.2,386.9,293.7z
			 M212.7,284.8c-1-1.1-0.9-2.8,0.2-3.8l0,0c1.1-1,2.8-0.9,3.8,0.2l0,0c1,1.1,0.9,2.8-0.2,3.8l0,0c-0.5,0.5-1.2,0.7-1.8,0.7l0,0
			C213.9,285.7,213.2,285.4,212.7,284.8z M377.9,284.7c-1.1-1-1.2-2.7-0.2-3.8l0,0c1-1.1,2.7-1.2,3.8-0.2l0,0c1.1,1,1.2,2.7,0.2,3.8
			l0,0c-0.5,0.6-1.3,0.9-2,0.9l0,0C379.1,285.4,378.4,285.2,377.9,284.7z M222.5,276.5c-0.9-1.2-0.6-2.9,0.6-3.7l0,0
			c1.2-0.9,2.9-0.6,3.7,0.6l0,0c0.9,1.2,0.6,2.9-0.6,3.7l0,0c-0.5,0.4-1,0.5-1.6,0.5l0,0C223.9,277.5,223.1,277.2,222.5,276.5z
			 M368.1,276.8c-1.2-0.9-1.5-2.5-0.6-3.7l0,0c0.9-1.2,2.5-1.5,3.7-0.6l0,0c1.2,0.9,1.5,2.5,0.6,3.7l0,0c-0.5,0.7-1.3,1.1-2.2,1.1
			l0,0C369.1,277.3,368.6,277.1,368.1,276.8z M233.2,269.2c-0.7-1.3-0.3-2.9,1-3.6l0,0c1.3-0.7,2.9-0.3,3.6,1l0,0
			c0.7,1.3,0.3,2.9-1,3.7l0,0c-0.4,0.2-0.9,0.4-1.3,0.4l0,0C234.6,270.5,233.7,270,233.2,269.2z M357.5,269.9
			c-1.3-0.7-1.7-2.4-1-3.6l0,0c0.7-1.3,2.4-1.7,3.6-1l0,0c1.3,0.7,1.7,2.4,1,3.6l0,0c-0.5,0.9-1.4,1.3-2.3,1.3l0,0
			C358.4,270.3,357.9,270.2,357.5,269.9z M244.5,263c-0.6-1.3,0-2.9,1.3-3.5l0,0c1.3-0.6,2.9,0,3.5,1.3l0,0c0.6,1.3,0,2.9-1.3,3.5
			l0,0c-0.4,0.2-0.7,0.2-1.1,0.2l0,0C246,264.6,245,264,244.5,263z M346.2,264.2c-1.4-0.6-2-2.2-1.4-3.5l0,0c0.6-1.3,2.2-2,3.5-1.4
			l0,0c1.3,0.6,2,2.2,1.4,3.5l0,0c-0.4,1-1.4,1.6-2.4,1.6l0,0C346.9,264.4,346.6,264.4,346.2,264.2z M256.5,258.1
			c-0.5-1.4,0.3-2.9,1.7-3.4l0,0l0,0l0,0c1.4-0.5,2.9,0.3,3.4,1.7l0,0c0.5,1.4-0.3,2.9-1.7,3.4l0,0c-0.3,0.1-0.6,0.1-0.8,0.1l0,0
			C257.9,260,256.9,259.2,256.5,258.1z M334.4,259.7c-1.4-0.4-2.2-2-1.7-3.4l0,0c0.4-1.4,2-2.2,3.4-1.7l0,0c1.4,0.5,2.2,2,1.7,3.4
			l0,0c-0.4,1.1-1.4,1.8-2.5,1.8l0,0C335,259.8,334.7,259.8,334.4,259.7z M268.9,254.5c-0.3-1.4,0.6-2.9,2.1-3.2l0,0
			c1.4-0.3,2.9,0.6,3.2,2.1l0,0c0.3,1.4-0.6,2.9-2.1,3.2l0,0c-0.2,0-0.4,0.1-0.6,0.1l0,0C270.3,256.6,269.2,255.8,268.9,254.5z
			 M322.2,256.5c-1.4-0.3-2.4-1.7-2.1-3.2l0,0c0.3-1.4,1.7-2.4,3.2-2.1l0,0c1.5,0.3,2.4,1.7,2.1,3.2l0,0c-0.3,1.3-1.4,2.1-2.6,2.1
			l0,0C322.6,256.5,322.4,256.5,322.2,256.5z M281.6,252.2c-0.1-1.5,0.9-2.8,2.4-2.9l0,0c1.5-0.2,2.8,0.9,2.9,2.4l0,0
			c0.1,1.5-0.9,2.8-2.4,2.9l0,0c-0.1,0-0.2,0-0.3,0l0,0C282.9,254.6,281.7,253.6,281.6,252.2z M309.7,254.5
			c-1.5-0.1-2.5-1.5-2.4-2.9l0,0c0.1-1.5,1.5-2.5,2.9-2.4l0,0l0,0l0,0c1.5,0.1,2.5,1.5,2.4,2.9l0,0c-0.1,1.4-1.3,2.4-2.7,2.4l0,0
			C309.9,254.5,309.8,254.5,309.7,254.5z M297.1,253.9L297.1,253.9L297.1,253.9L297.1,253.9L297.1,253.9z M294.5,251.2
			c0-1.5,1.2-2.7,2.7-2.7l0,0c0,0,0,0,0,0l0,0c1.5,0,2.7,1.2,2.7,2.7l0,0c0,1.5-1.2,2.7-2.7,2.7l0,0
			C295.7,253.9,294.5,252.7,294.5,251.2z"/>
		<linearGradient id="SVGID_13_" gradientUnits="userSpaceOnUse" x1="377.9185" y1="477.6407" x2="220.3981" y2="276.3348">
			<stop  offset="0" style="stop-color:#956D13"/>
			<stop  offset="8.131993e-02" style="stop-color:#9E761C"/>
			<stop  offset="0.4882" style="stop-color:#C59D46"/>
			<stop  offset="0.8083" style="stop-color:#DDB55F"/>
			<stop  offset="1" style="stop-color:#E6BE69"/>
		</linearGradient>
		<path class="st12" d="M297.1,500.3L297.1,500.3L297.1,500.3L297.1,500.3L297.1,500.3C297.1,500.3,297.1,500.3,297.1,500.3z
			 M294.4,497.6c0-1.5,1.2-2.7,2.7-2.7l0,0c1.5,0,2.7,1.2,2.7,2.7l0,0c0,1.5-1.2,2.7-2.7,2.7l0,0
			C295.6,500.3,294.4,499.1,294.4,497.6z M283.9,499.6c-1.5-0.1-2.5-1.5-2.4-2.9l0,0c0.1-1.5,1.5-2.5,2.9-2.4l0,0
			c1.5,0.1,2.5,1.5,2.4,2.9l0,0c-0.1,1.4-1.3,2.4-2.6,2.4l0,0C284.1,499.6,284,499.6,283.9,499.6z M307.3,497.2
			c-0.2-1.5,0.9-2.8,2.4-2.9l0,0c1.5-0.1,2.8,0.9,2.9,2.4l0,0c0.1,1.5-0.9,2.8-2.4,2.9l0,0c-0.1,0-0.2,0-0.3,0l0,0
			C308.6,499.6,307.4,498.6,307.3,497.2z M270.9,497.5c-1.4-0.3-2.4-1.7-2.1-3.2l0,0c0.3-1.4,1.7-2.4,3.2-2.1l0,0
			c1.4,0.3,2.4,1.7,2.1,3.2l0,0c-0.3,1.3-1.4,2.1-2.6,2.1l0,0C271.2,497.6,271.1,497.6,270.9,497.5z M320.1,495.5
			c-0.3-1.4,0.6-2.9,2.1-3.2l0,0c1.4-0.3,2.9,0.6,3.2,2.1l0,0c0.3,1.4-0.6,2.9-2.1,3.2l0,0c-0.2,0-0.4,0.1-0.6,0.1l0,0
			C321.5,497.6,320.4,496.7,320.1,495.5z M258.1,494.1c-1.4-0.5-2.2-2-1.7-3.4l0,0c0.5-1.4,2-2.2,3.4-1.7l0,0c1.4,0.5,2.2,2,1.7,3.4
			l0,0c-0.4,1.1-1.4,1.8-2.5,1.8l0,0C258.7,494.3,258.4,494.2,258.1,494.1z M332.6,492.4c-0.5-1.4,0.3-2.9,1.7-3.4v0
			c1.4-0.4,2.9,0.3,3.4,1.7l0,0c0.5,1.4-0.3,2.9-1.7,3.4l0,0l0,0l0,0c-0.3,0.1-0.6,0.1-0.8,0.1l0,0C334,494.2,333,493.5,332.6,492.4
			z M245.8,489.4c-1.3-0.6-2-2.2-1.4-3.5l0,0c0.6-1.3,2.2-2,3.5-1.4l0,0c1.3,0.6,2,2.2,1.4,3.5l0,0c-0.4,1-1.4,1.6-2.4,1.6l0,0
			C246.5,489.7,246.2,489.6,245.8,489.4z M344.8,488c-0.6-1.3,0-2.9,1.4-3.5l0,0c1.3-0.6,2.9,0,3.5,1.4l0,0c0.6,1.3,0,2.9-1.3,3.5
			l0,0c-0.4,0.1-0.7,0.2-1.1,0.2l0,0C346.2,489.6,345.2,489,344.8,488z M234.1,483.4c-1.3-0.7-1.7-2.4-1-3.7l0,0
			c0.7-1.3,2.4-1.7,3.6-1l0,0c1.3,0.7,1.7,2.4,1,3.7l0,0c-0.5,0.9-1.4,1.3-2.3,1.3l0,0C234.9,483.8,234.5,483.7,234.1,483.4z
			 M356.4,482.4c-0.7-1.3-0.3-2.9,1-3.7l0,0c1.3-0.7,2.9-0.3,3.6,1l0,0c0.7,1.3,0.3,2.9-1,3.7l0,0c-0.4,0.2-0.9,0.4-1.3,0.4l0,0
			C357.8,483.7,356.9,483.3,356.4,482.4z M223,476.2c-1.2-0.9-1.5-2.5-0.6-3.7l0,0c0.9-1.2,2.5-1.5,3.7-0.6l0,0
			c1.2,0.9,1.5,2.5,0.6,3.7l0,0c-0.5,0.7-1.3,1.1-2.2,1.1l0,0C224,476.8,223.5,476.6,223,476.2z M367.4,475.6
			c-0.9-1.2-0.6-2.9,0.6-3.7l0,0c1.2-0.9,2.9-0.6,3.7,0.6l0,0c0.9,1.2,0.6,2.9-0.6,3.7l0,0c-0.5,0.4-1,0.5-1.6,0.5l0,0
			C368.7,476.7,367.9,476.3,367.4,475.6z M212.8,468c-1.1-1-1.2-2.7-0.2-3.8l0,0c1-1.1,2.7-1.2,3.8-0.2l0,0c1.1,1,1.2,2.7,0.2,3.8
			l0,0c-0.5,0.6-1.3,0.9-2,0.9l0,0C213.9,468.6,213.3,468.4,212.8,468z M377.6,467.7c-1-1.1-0.9-2.8,0.2-3.8l0,0
			c1.1-1,2.8-0.9,3.8,0.2l0,0c1,1.1,0.9,2.8-0.2,3.8l0,0c-0.5,0.5-1.2,0.7-1.8,0.7l0,0C378.8,468.6,378.1,468.3,377.6,467.7z
			 M203.4,458.6c-1-1.1-0.9-2.8,0.2-3.8l0,0c1.1-1,2.8-0.9,3.8,0.2l0,0c1,1.1,0.9,2.8-0.2,3.8l0,0c-0.5,0.5-1.2,0.7-1.8,0.7l0,0
			C204.7,459.5,203.9,459.2,203.4,458.6z M386.9,458.7c-1.1-1-1.2-2.7-0.2-3.8v0c1-1.1,2.7-1.2,3.8-0.2l0,0c1.1,1,1.2,2.7,0.2,3.8
			l0,0l0,0l0,0c-0.5,0.6-1.3,0.9-2,0.9l0,0C388,459.4,387.4,459.2,386.9,458.7z M195.1,448.4L195.1,448.4L195.1,448.4
			c-0.9-1.2-0.6-2.9,0.6-3.7l0,0c1.2-0.9,2.9-0.6,3.7,0.6l0,0c0.9,1.2,0.6,2.9-0.6,3.7l0,0c-0.5,0.3-1,0.5-1.6,0.5l0,0
			C196.4,449.5,195.6,449.1,195.1,448.4z M395.2,448.9c-1.2-0.9-1.5-2.5-0.6-3.7l0,0c0.9-1.2,2.5-1.5,3.7-0.6l0,0
			c1.2,0.9,1.5,2.5,0.6,3.7l0,0c-0.5,0.7-1.3,1.1-2.2,1.1l0,0C396.3,449.4,395.7,449.2,395.2,448.9z M187.9,437.4
			c-0.7-1.3-0.3-2.9,1-3.7l0,0c1.3-0.7,2.9-0.3,3.7,1l0,0c0.7,1.3,0.3,2.9-1,3.7l0,0c-0.4,0.2-0.9,0.4-1.3,0.4l0,0
			C189.3,438.7,188.4,438.2,187.9,437.4z M402.5,438.2c-1.3-0.7-1.7-2.4-1-3.7l0,0c0.7-1.3,2.4-1.7,3.6-1l0,0c1.3,0.7,1.7,2.4,1,3.6
			l0,0c-0.5,0.9-1.4,1.3-2.3,1.3l0,0C403.4,438.6,402.9,438.5,402.5,438.2z M181.9,425.6L181.9,425.6L181.9,425.6
			c-0.6-1.3,0-2.9,1.3-3.5l0,0c1.3-0.6,2.9,0,3.5,1.4l0,0c0.6,1.3,0,2.9-1.3,3.5l0,0c-0.4,0.2-0.7,0.2-1.1,0.2l0,0
			C183.3,427.2,182.3,426.6,181.9,425.6z M408.6,426.8c-1.3-0.6-2-2.2-1.4-3.5l0,0c0.6-1.3,2.2-2,3.5-1.4l0,0
			c1.3,0.6,1.9,2.2,1.3,3.5l0,0c-0.4,1-1.4,1.6-2.4,1.6l0,0C409.4,427.1,409,427,408.6,426.8z M177.2,413.3
			c-0.5-1.4,0.3-2.9,1.7-3.4l0,0c1.4-0.5,2.9,0.3,3.4,1.7l0,0c0.4,1.4-0.3,2.9-1.7,3.4l0,0c-0.3,0.1-0.6,0.1-0.8,0.1l0,0
			C178.6,415.2,177.5,414.4,177.2,413.3z M413.5,414.9c-1.4-0.5-2.2-2-1.7-3.4l0,0c0.5-1.4,2-2.2,3.4-1.7l0,0c1.4,0.5,2.2,2,1.7,3.4
			l0,0c-0.4,1.1-1.4,1.8-2.5,1.8l0,0C414.1,415,413.8,415,413.5,414.9z M173.7,400.6c-0.3-1.4,0.6-2.9,2.1-3.2l0,0
			c1.4-0.3,2.9,0.6,3.2,2.1l0,0c0.3,1.4-0.6,2.9-2.1,3.2l0,0c-0.2,0-0.4,0.1-0.6,0.1l0,0C175.1,402.7,174,401.8,173.7,400.6z
			 M417.1,402.5c-1.5-0.3-2.4-1.7-2.1-3.2l0,0c0.3-1.4,1.7-2.4,3.2-2.1l0,0c1.4,0.3,2.4,1.7,2.1,3.2l0,0c-0.3,1.2-1.4,2.1-2.6,2.1
			l0,0C417.5,402.6,417.3,402.5,417.1,402.5z M171.7,387.5c-0.1-1.5,0.9-2.8,2.4-2.9l0,0c1.5-0.1,2.8,0.9,2.9,2.4l0,0
			c0.2,1.5-0.9,2.8-2.4,2.9l0,0c-0.1,0-0.2,0-0.3,0l0,0C173,389.9,171.8,388.9,171.7,387.5z M419.4,389.8c-1.5-0.2-2.5-1.5-2.4-2.9
			l0,0c0.1-1.5,1.5-2.5,2.9-2.4l0,0c1.5,0.2,2.5,1.5,2.4,2.9l0,0c-0.1,1.4-1.3,2.4-2.6,2.4l0,0C419.6,389.8,419.5,389.8,419.4,389.8
			z M171,374.4c0-1.5,1.2-2.7,2.7-2.7l0,0c1.5,0,2.7,1.2,2.7,2.7l0,0c0,1.5-1.2,2.7-2.7,2.7l0,0C172.2,377,171,375.9,171,374.4z
			 M417.7,374.2c0,0,0-0.1,0-0.1l0,0c0-0.1,0-0.1,0-0.1l0,0c0-1.5,1.2-2.7,2.7-2.7l0,0c1.5,0,2.7,1.2,2.7,2.7l0,0c0,0,0,0.1,0,0.1
			l0,0c0,0,0,0.1,0,0.1l0,0c0,1.5-1.2,2.7-2.7,2.7l0,0C418.9,376.9,417.7,375.7,417.7,374.2z M174,364.1c-1.5-0.2-2.5-1.5-2.4-2.9
			l0,0l0,0l0,0c0.1-1.5,1.5-2.5,2.9-2.4l0,0c1.5,0.1,2.5,1.5,2.4,2.9l0,0c-0.1,1.4-1.3,2.4-2.7,2.4l0,0
			C174.2,364.2,174.1,364.1,174,364.1z M417,361.4c-0.1-1.5,0.9-2.8,2.4-2.9l0,0c1.5-0.1,2.8,0.9,2.9,2.4l0,0
			c0.1,1.5-0.9,2.8-2.4,2.9l0,0c-0.1,0-0.2,0-0.3,0l0,0C418.3,363.8,417.1,362.7,417,361.4z M175.7,351.3c-1.4-0.3-2.4-1.7-2.1-3.2
			l0,0l0,0l0,0c0.3-1.4,1.7-2.4,3.2-2.1l0,0c1.4,0.3,2.4,1.7,2.1,3.2l0,0c-0.3,1.3-1.4,2.1-2.6,2.1l0,0
			C176.1,351.4,175.9,351.4,175.7,351.3z M415,348.9c-0.3-1.4,0.6-2.9,2.1-3.2l0,0c1.5-0.3,2.9,0.6,3.2,2.1l0,0
			c0.3,1.4-0.6,2.9-2.1,3.2l0,0c-0.2,0-0.4,0.1-0.6,0.1l0,0C416.4,351,415.3,350.1,415,348.9z M178.8,338.8c-1.4-0.4-2.2-2-1.7-3.4
			l0,0c0.4-1.4,2-2.2,3.4-1.7l0,0c1.4,0.4,2.2,2,1.7,3.4l0,0c-0.4,1.1-1.4,1.8-2.5,1.8l0,0C179.3,338.9,179.1,338.9,178.8,338.8z
			 M411.7,336.7L411.7,336.7c-0.5-1.4,0.3-2.9,1.7-3.4l0,0c1.4-0.5,2.9,0.3,3.4,1.7l0,0c0.5,1.4-0.3,2.9-1.7,3.4l0,0
			c-0.3,0.1-0.6,0.1-0.8,0.1l0,0C413.1,338.5,412.1,337.8,411.7,336.7z M183.1,326.6c-1.4-0.6-2-2.2-1.4-3.5l0,0
			c0.6-1.3,2.2-2,3.5-1.4l0,0c1.3,0.6,1.9,2.2,1.3,3.5l0,0c-0.4,1-1.4,1.6-2.4,1.6l0,0C183.9,326.9,183.5,326.8,183.1,326.6z
			 M407.2,324.9c-0.6-1.3,0-2.9,1.3-3.5l0,0c1.3-0.6,2.9,0,3.5,1.3l0,0c0.6,1.4,0,2.9-1.3,3.5l0,0c-0.4,0.2-0.7,0.2-1.1,0.2l0,0
			C408.6,326.5,407.6,325.9,407.2,324.9z M188.7,315c-1.3-0.7-1.7-2.4-1-3.6l0,0l0,0l0,0c0.7-1.3,2.4-1.7,3.6-1l0,0
			c1.3,0.7,1.7,2.4,1,3.7l0,0c-0.5,0.9-1.4,1.3-2.3,1.3l0,0C189.6,315.4,189.2,315.2,188.7,315z M401.4,313.7
			c-0.7-1.3-0.3-2.9,1-3.7l0,0c1.3-0.7,2.9-0.3,3.7,1l0,0l0,0l0,0c0.7,1.3,0.3,2.9-1,3.7l0,0c-0.4,0.2-0.9,0.4-1.3,0.4l0,0
			C402.8,315,401.9,314.5,401.4,313.7z M195.5,304c-1.2-0.9-1.5-2.5-0.6-3.7l0,0l0,0l0,0c0.9-1.2,2.5-1.5,3.7-0.6l0,0
			c1.2,0.9,1.5,2.5,0.6,3.7l0,0c-0.5,0.7-1.3,1.1-2.2,1.1l0,0C196.6,304.5,196,304.4,195.5,304z M394.5,303.1
			c-0.9-1.2-0.6-2.9,0.6-3.7l0,0c1.2-0.9,2.9-0.6,3.7,0.6l0,0c0.9,1.2,0.6,2.9-0.6,3.7l0,0c-0.5,0.3-1,0.5-1.6,0.5l0,0
			C395.8,304.2,395,303.8,394.5,303.1z M203.4,293.8c-1.1-1-1.2-2.7-0.2-3.8l0,0c1-1.1,2.7-1.2,3.8-0.2l0,0c1.1,1,1.2,2.7,0.2,3.8
			l0,0c-0.5,0.6-1.3,0.9-2,0.9l0,0C204.6,294.5,204,294.3,203.4,293.8z M386.5,293.3c-1-1.1-0.9-2.8,0.2-3.8l0,0
			c1.1-1,2.8-0.9,3.8,0.2l0,0c1,1.1,0.9,2.8-0.2,3.8l0,0c-0.5,0.5-1.2,0.7-1.8,0.7l0,0C387.8,294.2,387.1,293.9,386.5,293.3z
			 M212.4,284.5c-1-1.1-0.9-2.8,0.2-3.8l0,0c1.1-1,2.8-0.9,3.8,0.2l0,0c1,1.1,0.9,2.8-0.2,3.8l0,0c-0.5,0.5-1.2,0.7-1.8,0.7l0,0
			C213.6,285.4,212.9,285.1,212.4,284.5z M377.6,284.4c-1.1-1-1.2-2.7-0.2-3.8l0,0c1-1.1,2.7-1.2,3.8-0.2l0,0c1.1,1,1.2,2.7,0.2,3.8
			l0,0c-0.5,0.6-1.3,0.9-2,0.9l0,0C378.7,285.1,378.1,284.9,377.6,284.4z M222.2,276.1c-0.9-1.2-0.6-2.9,0.6-3.7l0,0
			c1.2-0.9,2.9-0.6,3.7,0.6l0,0c0.9,1.2,0.6,2.9-0.6,3.7l0,0c-0.5,0.4-1,0.5-1.6,0.5l0,0C223.5,277.2,222.7,276.8,222.2,276.1z
			 M367.8,276.5c-1.2-0.9-1.5-2.5-0.6-3.7l0,0c0.9-1.2,2.5-1.5,3.7-0.6l0,0c1.2,0.9,1.5,2.5,0.6,3.7l0,0c-0.5,0.7-1.3,1.1-2.2,1.1
			l0,0C368.8,277,368.2,276.8,367.8,276.5z M232.9,268.8c-0.7-1.3-0.3-2.9,1-3.6l0,0c1.3-0.7,2.9-0.3,3.6,1l0,0
			c0.7,1.3,0.3,2.9-1,3.7l0,0c-0.4,0.2-0.9,0.4-1.3,0.4l0,0C234.2,270.2,233.4,269.7,232.9,268.8z M357.2,269.6
			c-1.3-0.7-1.7-2.4-1-3.6l0,0c0.7-1.3,2.4-1.7,3.6-1l0,0c1.3,0.7,1.7,2.4,1,3.6l0,0c-0.5,0.9-1.4,1.3-2.3,1.3l0,0
			C358,270,357.6,269.8,357.2,269.6z M244.2,262.7c-0.6-1.3,0-2.9,1.3-3.5l0,0c1.3-0.6,2.9,0,3.5,1.3l0,0c0.6,1.3,0,2.9-1.3,3.5l0,0
			c-0.4,0.2-0.7,0.2-1.1,0.2l0,0C245.6,264.3,244.7,263.7,244.2,262.7z M345.9,263.9c-1.4-0.6-2-2.2-1.4-3.5l0,0
			c0.6-1.3,2.2-2,3.5-1.4l0,0c1.3,0.6,2,2.2,1.4,3.5l0,0c-0.4,1-1.4,1.6-2.4,1.6l0,0C346.6,264.1,346.2,264,345.9,263.9z
			 M256.2,257.8c-0.5-1.4,0.3-2.9,1.7-3.4l0,0l0,0l0,0c1.4-0.5,2.9,0.3,3.4,1.7l0,0c0.5,1.4-0.3,2.9-1.7,3.4l0,0
			c-0.3,0.1-0.6,0.1-0.8,0.1l0,0C257.6,259.6,256.5,258.9,256.2,257.8z M334.1,259.4c-1.4-0.4-2.2-2-1.7-3.4l0,0
			c0.4-1.4,2-2.2,3.4-1.7l0,0c1.4,0.5,2.2,2,1.7,3.4l0,0c-0.4,1.1-1.4,1.8-2.5,1.8l0,0C334.6,259.5,334.4,259.5,334.1,259.4z
			 M268.6,254.2c-0.3-1.4,0.6-2.9,2-3.2l0,0c1.4-0.3,2.9,0.6,3.2,2.1l0,0c0.3,1.4-0.6,2.9-2.1,3.2l0,0c-0.2,0-0.4,0.1-0.6,0.1l0,0
			C269.9,256.3,268.8,255.4,268.6,254.2z M321.9,256.1c-1.4-0.3-2.4-1.7-2.1-3.2l0,0c0.3-1.4,1.7-2.4,3.2-2.1l0,0
			c1.5,0.3,2.4,1.7,2.1,3.2l0,0c-0.3,1.3-1.4,2.1-2.6,2.1l0,0C322.3,256.2,322.1,256.2,321.9,256.1z M281.2,251.9
			c-0.1-1.5,0.9-2.8,2.4-2.9l0,0c1.5-0.2,2.8,0.9,2.9,2.4l0,0c0.1,1.5-0.9,2.8-2.4,2.9l0,0c-0.1,0-0.2,0-0.3,0l0,0
			C282.6,254.2,281.4,253.2,281.2,251.9z M309.4,254.2c-1.5-0.1-2.5-1.5-2.4-2.9l0,0c0.1-1.5,1.5-2.5,2.9-2.4l0,0l0,0l0,0
			c1.5,0.1,2.5,1.5,2.4,2.9l0,0c-0.1,1.4-1.3,2.4-2.7,2.4l0,0C309.6,254.2,309.5,254.2,309.4,254.2z M296.8,253.6L296.8,253.6
			L296.8,253.6L296.8,253.6L296.8,253.6z M294.1,250.9c0-1.5,1.2-2.7,2.7-2.7l0,0c0,0,0,0,0,0l0,0c1.5,0,2.7,1.2,2.7,2.7l0,0
			c0,1.5-1.2,2.7-2.7,2.7l0,0C295.3,253.6,294.1,252.4,294.1,250.9z"/>
	</g>
	<g>
		<path class="st13" d="M212.6,367.1c-0.4-0.1-0.7-0.1-1-0.2c-0.3,0-0.6-0.1-0.9-0.2c-0.9-0.3-1.6-0.7-2.3-1.3
			c-0.7-0.6-1.2-1.2-1.6-2c-0.4-0.8-0.5-1.6-0.5-2.4c0-0.9,0.2-1.7,0.7-2.6c0.4-0.6,0.8-1.1,1.4-1.4c0.6-0.3,1.2-0.5,1.9-0.5
			c0.5,0,1,0.1,1.3,0.4c0.4,0.3,0.7,0.6,0.9,1c0.2,0.4,0.4,0.9,0.4,1.3c0,0.5,0,0.9-0.2,1.4c-0.1,0.2-0.2,0.4-0.3,0.6
			c-0.2,0.2-0.3,0.4-0.5,0.6c-0.2,0.2-0.3,0.4-0.4,0.6c-0.1,0.2-0.2,0.4-0.2,0.6c0,0.5,0.2,1,0.5,1.3c0.3,0.3,0.7,0.6,1.2,0.7
			c0.5,0.2,1,0.3,1.5,0.3c0.5,0.1,1,0.1,1.4,0.1c1.4,0,2.7-0.3,3.9-0.8c1.2-0.5,2.4-1.2,3.5-2c1.1-0.8,2.1-1.7,3-2.7
			c0.9-1,1.8-2,2.6-3.1c0.5-0.7,1-1.3,1.5-2c0.5-0.7,1-1.3,1.5-2c0.7-1,1.4-2,2.1-3.1c0.6-1.1,1.2-2.3,1.7-3.4
			c0.6-1.4,1.4-2.8,2.2-4c0.8-1.3,1.7-2.6,2.5-3.9c1.2-1.8,2.5-3.6,3.8-5.2c1.3-1.7,2.9-3.2,4.6-4.5c0.8-0.6,1.6-1.1,2.5-1.6
			c0.9-0.5,1.8-0.9,2.7-1.3c0.9-0.3,1.7-0.5,2.3-0.4c0.6,0.1,1,0.3,1,0.8c0,0.3-0.1,0.5-0.3,0.7c-0.2,0.1-0.5,0.2-0.9,0.2
			c-0.5,0-0.9,0.2-1.3,0.4c-0.4,0.2-0.8,0.5-1.2,0.8c-0.4,0.3-0.7,0.7-1,1.1c-0.3,0.4-0.5,0.8-0.8,1.2c-0.6,1.1-1.3,2.1-1.9,3.2
			c-0.6,1.1-1.2,2.2-1.7,3.3c-0.5,1-1,2-1.6,3c-0.6,1-1.1,2-1.6,3c-1.1,2.3-2.2,4.5-3.5,6.6c-1.2,2.2-2.6,4.2-4.2,6.2
			c-0.9,1.1-1.8,2.2-2.7,3.2c-1,0.9-2,1.8-3,2.6c-1.1,0.8-2.2,1.5-3.4,2.1c-1.8,0.9-3.7,1.7-5.5,2.4c-1.9,0.6-3.8,1-5.9,1.2
			c-0.7,0-1.4,0-2,0C213.9,367.2,213.3,367.2,212.6,367.1z M224.2,349.2c-0.1,0-0.1-0.1-0.2-0.1c-0.1,0-0.1,0-0.2-0.1
			c-0.9-0.3-1.7-0.7-2.4-1.2c-0.7-0.5-1.2-1.2-1.5-2.1c-0.4-1.2-0.6-2.5-0.4-3.7c0.1-1.3,0.4-2.5,0.8-3.7c0.2-0.6,0.5-1.1,0.7-1.7
			c0.3-0.6,0.5-1.1,0.9-1.7c0.9-1.6,2.1-3.1,3.4-4.5c1.3-1.4,2.7-2.6,4.2-3.7c1-0.7,2-1.4,3.1-2c1-0.6,2.1-1.2,3.2-1.7
			c1.3-0.6,2.7-1.2,4.1-1.6c1.4-0.5,2.8-0.9,4.2-1.2c2.2-0.5,4.4-0.8,6.8-0.8c2.3,0,4.6,0.4,6.7,1.2c1.9,0.7,3.5,1.8,4.9,3.3
			c1.4,1.5,2.3,3.3,2.6,5.2c0.2,1,0.2,2.1,0.1,3.1c-0.1,0.8-0.3,1.6-0.5,2.4c-0.2,0.8-0.5,1.6-0.9,2.3c-0.4,0.7-0.8,1.4-1.4,2.2
			c-0.7,1.1-1.6,1.9-2.6,2.7c-1,0.7-2.1,1.4-3.2,1.9c-1,0.5-2.1,0.9-3.3,1c-1.2,0.2-2.3,0.3-3.4,0.5c-0.3,0-0.7,0.1-1.1,0.1
			c-0.4,0-0.8,0-1.2-0.1c-0.4-0.1-0.7-0.2-1-0.4c-0.3-0.2-0.5-0.5-0.7-0.9c-0.1-0.2-0.1-0.4,0-0.6c0.1-0.2,0.2-0.4,0.4-0.5
			c0.4-0.2,0.7-0.2,1.1,0c0.4,0.1,0.7,0.3,1,0.3c1.1,0.3,2.2,0.2,3.3-0.2c1-0.4,2-1,2.8-1.7c0.9-0.7,1.6-1.6,2.3-2.6
			c0.7-1,1.2-1.9,1.6-2.9c0.5-1.4,0.9-2.8,1.1-4.4c0.2-1.6-0.1-3.1-0.7-4.5c-0.4-0.9-0.8-1.7-1.4-2.3c-0.5-0.6-1.2-1.2-2-1.7
			c-0.7-0.4-1.5-0.7-2.4-0.9c-0.9-0.2-1.7-0.3-2.6-0.4c-0.9-0.1-1.8-0.1-2.7,0c-0.9,0-1.7,0.1-2.5,0.2c-1.5,0.2-3.1,0.5-4.6,1.1
			c-1.5,0.6-2.9,1.3-4.3,2.1c-1.4,0.8-2.7,1.8-3.9,2.9c-1.2,1.1-2.3,2.2-3.3,3.4c-0.6,0.7-1.2,1.6-1.9,2.7c-0.7,1.1-1.2,2.2-1.6,3.4
			c-0.4,1.2-0.6,2.3-0.6,3.5c0,1.2,0.4,2.2,1.1,3.1c0.4,0.6,1,1,1.5,1.2c0.6,0.2,1.2,0.3,1.8,0.3c0.6,0,1.2-0.1,1.8-0.4
			c0.6-0.2,1.2-0.5,1.7-0.8c0.1-0.1,0.3-0.2,0.6-0.4c0.3-0.2,0.6-0.3,0.8-0.4c0.3-0.1,0.6-0.2,0.8-0.2c0.3,0,0.5,0.1,0.5,0.3
			c0.1,0.3,0.1,0.6-0.1,0.9c-0.2,0.3-0.4,0.6-0.7,1c-0.3,0.3-0.6,0.6-1,0.8c-0.4,0.2-0.6,0.4-0.8,0.5c-0.9,0.6-1.9,1.2-3.1,1.6
			c-1.1,0.4-2.2,0.7-3.3,0.8C225.9,349.4,225,349.4,224.2,349.2z"/>
		<path class="st13" d="M242.3,366.9c-0.2-0.4-0.1-0.8,0.2-1.2c0.3-0.3,0.7-0.6,1-0.8c0.4-0.3,0.8-0.5,1.3-0.7s0.9-0.5,1.3-0.8
			c0.9-0.7,1.7-1.4,2.4-2.3c0.7-0.8,1.4-1.7,2-2.7c0.5-0.7,1-1.4,1.5-2c0.5-0.7,1-1.3,1.5-2c0.5-0.7,0.9-1.5,1.4-2.2
			c0.5-0.7,0.9-1.4,1.4-2.2c0.6-0.9,1.1-1.8,1.5-2.8c0.5-0.9,1-1.9,1.5-2.8c0.3-0.4,0.5-0.8,0.8-1c0.3-0.2,0.7-0.2,1.2,0.2
			c1.1,0.7,2.3,1,3.4,0.9c1.2-0.1,2.4-0.4,3.6-0.7c0.4-0.1,0.7-0.1,1,0.1c0.3,0.1,0.5,0.4,0.4,0.9c0,0.4-0.2,0.9-0.6,1.3
			c-0.4,0.4-0.7,0.8-1,1.1c-0.4,0.4-0.8,0.9-1.1,1.3c-0.4,0.4-0.7,0.9-1.1,1.3c-1.4,1.9-2.7,3.8-3.8,5.7c-0.4,0.6-0.7,1.1-1,1.7
			c-0.3,0.6-0.6,1.1-0.8,1.7c-0.1,0.2-0.2,0.5-0.4,0.9c-0.2,0.5-0.4,1-0.5,1.5c-0.1,0.5-0.2,1-0.2,1.4c0,0.4,0.2,0.7,0.5,0.8
			c0.4,0.1,0.7,0.1,1,0c0.3-0.1,0.7-0.3,1-0.5c0.3-0.2,0.6-0.4,0.9-0.7c0.3-0.3,0.5-0.5,0.7-0.7c1-1,1.9-2.1,2.7-3.3
			c0.8-1.2,1.6-2.3,2.5-3.4c0.2-0.2,0.4-0.5,0.7-0.9c0.3-0.4,0.6-0.6,0.9-0.5c0.4,0,0.6,0.2,0.5,0.6c0,0.3-0.2,0.7-0.4,1.1
			c-0.2,0.4-0.5,0.8-0.7,1.1c-0.3,0.4-0.5,0.6-0.6,0.7c-0.5,0.6-0.9,1.1-1.3,1.7c-0.5,0.6-0.9,1.1-1.3,1.6c-0.4,0.5-0.7,1-1.1,1.5
			c-0.4,0.5-0.8,1-1.2,1.4c-0.8,1-1.8,1.8-2.8,2.6c-1,0.8-2.2,1.3-3.5,1.6c-0.4,0.1-0.9,0.1-1.4,0c-0.5,0-0.9-0.1-1.3-0.3
			c-0.4-0.2-0.7-0.4-1-0.7c-0.3-0.3-0.5-0.7-0.6-1.2c-0.2-0.6-0.2-1.1-0.2-1.7c0-0.6,0.1-1.1,0.3-1.7c0.2-0.5,0.4-1.1,0.6-1.6
			c0.2-0.5,0.5-1.1,0.7-1.5c0.7-1.4,1.6-2.8,2.8-4c1.1-1.2,2.2-2.4,3.4-3.5c0.2-0.2,0.5-0.4,0.9-0.7c0.4-0.3,0.6-0.6,0.7-0.8
			c0.1-0.2,0.1-0.3,0-0.4c-0.1,0-0.2-0.1-0.3-0.1c-0.1,0-0.3,0-0.5,0c-0.2,0-0.3,0-0.4,0c-0.3,0-0.6-0.1-0.9-0.2
			c-0.3-0.2-0.6-0.3-0.9-0.3c-0.4-0.1-0.8,0-1,0.3c-0.2,0.3-0.5,0.6-0.7,0.9c-0.3,0.4-0.6,0.9-0.9,1.4c-0.3,0.5-0.6,1-0.9,1.4
			c-0.6,1-1.2,2-1.9,3c-0.6,1-1.3,1.9-2,2.9c-0.4,0.5-0.8,1.1-1.2,1.6c-0.4,0.5-0.9,1-1.3,1.5c-0.1,0.1-0.4,0.4-0.7,0.8
			c-0.4,0.4-0.8,0.9-1.3,1.4c-0.5,0.5-1,1-1.6,1.5c-0.6,0.5-1.1,0.9-1.6,1.3c-0.5,0.4-1,0.6-1.4,0.6
			C242.7,367.4,242.4,367.3,242.3,366.9z"/>
		<path class="st13" d="M270.8,367.5c-0.8-0.1-1.6-0.3-2.3-0.7c-0.9-0.5-1.5-1.2-1.9-2.1c-0.3-0.8-0.4-1.7-0.4-2.7
			c0.1-0.9,0.2-1.9,0.5-2.8c0.3-0.9,0.6-1.8,1-2.5c0.9-2,2-3.8,3.3-5.5c1.3-1.7,2.9-3.2,4.7-4.5c1.1-0.8,2.3-1.5,3.7-2
			c1.3-0.6,2.7-0.9,4.1-1.1c1.5-0.2,2.5,0.2,2.9,1c0.5,0.9,0.7,1.7,0.6,2.5c-0.1,0.8-0.3,1.6-0.8,2.3c-0.4,0.7-1,1.4-1.7,2
			c-0.7,0.6-1.5,1.2-2.3,1.7c-0.8,0.5-1.6,1-2.5,1.4c-0.8,0.4-1.6,0.7-2.2,0.9c-0.7,0.3-1.4,0.5-2,0.8c-0.6,0.2-1.1,0.5-1.6,0.8
			c-0.4,0.3-0.8,0.7-1.2,1.2c-0.3,0.5-0.6,1.1-0.8,1.9c-0.2,0.5-0.2,1-0.2,1.5c0,0.5,0.1,1,0.3,1.4c0.2,0.4,0.5,0.7,0.9,1
			c0.4,0.2,0.9,0.4,1.5,0.4c0.6,0,1.2-0.1,1.8-0.3c0.6-0.2,1.1-0.5,1.6-0.9c0.5-0.3,1-0.7,1.5-1.2c0.5-0.4,0.9-0.9,1.3-1.3
			c0.9-1,1.8-2.1,2.7-3.2c0.9-1.1,1.7-2.2,2.5-3.3c0.1-0.1,0.2-0.3,0.4-0.6c0.2-0.3,0.4-0.6,0.6-0.9c0.2-0.3,0.4-0.4,0.6-0.5
			c0.2,0,0.3,0.2,0.4,0.6c0.1,0.5,0,1.1-0.4,1.7c-0.4,0.6-0.8,1-1.1,1.4c-0.8,1-1.6,2.1-2.4,3.2c-0.8,1.1-1.6,2.1-2.5,3.1
			c-0.9,1-1.8,1.9-2.9,2.7c-1,0.8-2.2,1.5-3.5,2c-0.7,0.3-1.4,0.4-2,0.5C272.2,367.6,271.5,367.6,270.8,367.5z M274.8,354.9
			c0.3-0.1,0.5-0.2,0.8-0.3c0.3-0.2,0.5-0.3,0.6-0.3c0.9-0.5,1.8-1.2,2.6-2c0.8-0.8,1.5-1.6,2.2-2.4c0.4-0.5,0.8-1,1.1-1.6
			c0.4-0.6,0.5-1.2,0.6-1.9c0-0.3,0-0.5-0.2-0.7c-0.2-0.2-0.4-0.3-0.7-0.3c-0.4,0.1-0.8,0.3-1.2,0.7c-0.4,0.4-0.7,0.7-1,0.9
			c-0.2,0.2-0.4,0.4-0.6,0.6c-0.2,0.2-0.4,0.4-0.5,0.6c-0.5,0.6-1,1.3-1.5,1.9c-0.5,0.6-0.9,1.3-1.4,1.9c-0.1,0.1-0.2,0.3-0.4,0.6
			c-0.2,0.3-0.4,0.7-0.6,1c-0.2,0.4-0.3,0.6-0.3,0.9C274.4,354.8,274.5,354.9,274.8,354.9z"/>
		<path class="st13" d="M278.4,367.5c-0.2-0.1-0.3-0.2-0.3-0.3c0-0.1,0-0.3,0-0.6c0-0.6,0.3-1.1,0.7-1.6c0.4-0.5,0.8-0.9,1.1-1.4
			c1.4-1.9,2.6-3.9,3.7-5.9c1.1-2,2.3-4,3.6-6c0.5-0.8,1.1-1.7,1.6-2.5c0.6-0.8,1-1.7,1.2-2.7c0.1-0.4,0.2-0.7,0.2-1.1
			c0-0.4,0.3-0.7,0.7-0.8c0.4-0.2,0.9-0.3,1.4-0.3c0.5,0,1,0,1.4,0c0.4-0.1,0.8-0.1,1.2-0.1c0.5,0,0.9,0.1,1.1,0.4
			c0.2,0.3,0.3,0.5,0.2,0.9c-0.1,0.3-0.1,0.6-0.2,0.9c-0.1,0.2-0.1,0.4-0.2,0.6c-0.1,0.2-0.1,0.4-0.1,0.6c0,0,0.1-0.2,0.4-0.4
			c0.3-0.2,0.6-0.4,1-0.7c0.4-0.3,0.7-0.5,1.1-0.7c0.3-0.2,0.5-0.4,0.6-0.4c0.5-0.3,1.1-0.6,1.7-0.9c0.6-0.3,1.2-0.4,1.9-0.4
			c0.9,0,1.7,0.2,2.4,0.7c0.7,0.5,1,1.3,1.1,2.3c0,0.3,0,0.5,0,0.7c0,0.2,0,0.5,0,0.7c0.2-0.1,0.3-0.2,0.4-0.3
			c0.1-0.1,0.2-0.2,0.3-0.3c0.1-0.1,0.1-0.1,0.2-0.1c0.3-0.4,0.6-0.7,1-1c0.6-0.6,1.3-1.1,2.1-1.6c0.6-0.3,1.2-0.6,1.8-0.8
			c0.6-0.2,1.3-0.3,1.9-0.4c0.6-0.1,1.2-0.1,1.7,0c0.5,0.1,0.9,0.3,1.4,0.8c0.1,0.1,0.2,0.2,0.3,0.3c0.1,0.1,0.2,0.2,0.3,0.4
			c0.3,0.6,0.4,1.3,0.3,2.1c-0.1,0.7-0.2,1.4-0.4,2.1c-0.5,1.2-1,2.4-1.7,3.5c-0.7,1.1-1.4,2.2-2.1,3.3c-0.5,0.7-0.9,1.5-1.4,2.2
			c-0.5,0.7-0.9,1.5-1.4,2.2c-0.1,0.2-0.3,0.4-0.5,0.8c-0.2,0.4-0.5,0.7-0.7,1.1c-0.2,0.4-0.3,0.8-0.4,1.1c-0.1,0.4,0,0.6,0.2,0.8
			c0.2,0.2,0.5,0.3,0.8,0.2c0.3-0.1,0.6-0.2,0.8-0.3c0.7-0.3,1.3-0.7,1.9-1.3c0.6-0.5,1.1-1.1,1.7-1.6c1-0.9,1.9-1.9,2.6-3.1
			c0.8-1.1,1.5-2.2,2.3-3.3c0.1-0.2,0.3-0.5,0.6-0.8c0.2-0.3,0.5-0.3,0.8-0.1c0.4,0.3,0.5,0.7,0.2,1.2c-0.2,0.6-0.6,1.2-1,1.8
			c-0.4,0.6-0.9,1.2-1.4,1.8c-0.5,0.6-0.8,0.9-1,1.1c-0.5,0.7-1.1,1.4-1.7,2.1c-0.6,0.7-1.2,1.3-2,1.8c-0.4,0.3-0.7,0.6-1,0.8
			c-0.3,0.3-0.7,0.5-1,0.8c-0.5,0.4-1.1,0.7-1.7,1.1c-0.7,0.3-1.3,0.6-2.1,0.7c-0.7,0.1-1.4,0.2-2.1,0.1c-0.7-0.1-1.3-0.4-1.8-0.8
			c-0.5-0.4-0.8-1-0.8-1.6c-0.1-0.6,0-1.3,0.2-1.9c0.2-0.6,0.4-1.3,0.7-1.9c0.3-0.6,0.6-1.2,0.8-1.6c0.5-0.8,0.9-1.6,1.3-2.4
			c0.4-0.8,0.9-1.6,1.4-2.3c0.5-0.7,0.9-1.3,1.4-2c0.5-0.6,0.9-1.3,1.3-2c0.2-0.4,0.4-0.8,0.6-1.2c0.2-0.4,0.3-0.8,0.4-1.3
			c0.1-0.3,0.1-0.6,0.1-0.9c0-0.3-0.2-0.5-0.6-0.6c-0.4-0.2-0.7-0.1-1.2,0.1c-0.4,0.2-0.8,0.5-1.1,0.7c-1.3,1-2.5,2.2-3.5,3.7
			c-1,1.5-1.9,2.9-2.8,4.3c-1,1.6-2,3.2-2.9,4.8c-0.9,1.6-1.9,3.2-2.9,4.8c-0.2,0.3-0.4,0.6-0.6,1c-0.2,0.3-0.5,0.6-0.8,0.8
			c-0.3,0.1-0.6,0.2-0.9,0.2c-0.3,0-0.7,0-1,0c-0.2,0-0.4,0-0.7,0c-0.3,0-0.6,0-0.9-0.1c-0.3,0-0.6-0.1-0.8-0.1
			c-0.3-0.1-0.4-0.2-0.5-0.3c-0.1-0.2-0.2-0.3-0.1-0.6c0-0.2,0.1-0.4,0.2-0.6c0.1-0.2,0.2-0.4,0.3-0.6c0.1-0.2,0.2-0.4,0.3-0.5
			c1.3-2,2.5-4,3.7-6.1c1.2-2,2.4-4.1,3.6-6.1c0.1-0.1,0.3-0.5,0.7-1.1c0.4-0.6,0.7-1.3,1-2c0.3-0.7,0.5-1.3,0.6-1.9
			c0.1-0.5-0.1-0.8-0.6-0.7c-0.9,0.1-1.7,0.5-2.5,1.3c-0.8,0.7-1.5,1.4-2.1,2c-0.7,0.7-1.4,1.5-2,2.3c-0.6,0.8-1.2,1.7-1.8,2.5
			c-1,1.5-2,3-3.1,4.5c-1,1.5-2,3-3,4.6c-0.1,0.2-0.2,0.5-0.3,0.8c-0.1,0.3-0.2,0.6-0.4,0.9c-0.1,0.3-0.3,0.6-0.5,0.8
			c-0.2,0.2-0.4,0.4-0.7,0.5c-0.1,0-0.1,0-0.2,0c-0.1,0-0.1,0.1-0.2,0.1c-0.2,0.1-0.5,0.1-0.9,0.1c-0.5,0-1,0-1.5,0
			c-0.5,0-1,0-1.4,0C278.8,367.6,278.6,367.6,278.4,367.5z"/>
		<path class="st13" d="M318,367.5c-0.5-0.2-1-0.6-1.4-1.2c-0.3-0.4-0.5-1-0.6-1.6c-0.1-0.6-0.1-1.1-0.1-1.7c0.1-1,0.4-1.9,0.8-2.8
			c0.4-0.9,0.8-1.8,1.3-2.6c0.8-1.4,1.6-2.8,2.5-4.1c0.9-1.3,1.8-2.7,2.6-4.1c0.4-0.5,0.7-1.1,1-1.7c0.3-0.6,0.5-1.2,0.6-1.8
			c0-0.2,0.1-0.5,0.1-0.7c0-0.2,0.2-0.4,0.3-0.6c0.4-0.4,0.9-0.6,1.6-0.6c0.7-0.1,1.3-0.1,1.8-0.1c0.2,0,0.5-0.1,0.8-0.1
			c0.3,0,0.6,0,0.8,0.1c0.3,0,0.5,0.1,0.7,0.3c0.2,0.1,0.3,0.4,0.3,0.7c0,0.4,0,0.8-0.2,1.3c-0.1,0.4-0.3,0.8-0.6,1.2
			c-0.2,0.4-0.5,0.8-0.8,1.2c-0.3,0.4-0.5,0.8-0.7,1.1c-0.9,1.4-1.9,2.9-2.8,4.3c-0.9,1.4-1.8,2.9-2.7,4.4c-0.1,0.1-0.2,0.4-0.4,0.7
			c-0.2,0.3-0.4,0.7-0.7,1.1c-0.2,0.4-0.5,0.9-0.7,1.3c-0.2,0.5-0.4,0.9-0.5,1.3c-0.1,0.4-0.1,0.7,0,1c0.1,0.3,0.4,0.4,0.7,0.4
			c0.4,0,0.8-0.1,1.2-0.3c0.4-0.2,0.8-0.5,1.2-0.8c0.4-0.3,0.7-0.7,1-1c0.3-0.4,0.6-0.7,0.9-1c0.8-0.9,1.6-1.8,2.3-2.8
			c0.7-1,1.4-1.9,2.1-3c0.1-0.2,0.2-0.5,0.4-0.9c0.2-0.4,0.3-0.8,0.5-1.1c0.2-0.4,0.4-0.7,0.7-0.9c0.3-0.2,0.5-0.3,0.9-0.1
			c0.3,0.1,0.3,0.5,0.2,1c-0.2,0.5-0.5,1.2-1,2c-0.5,0.8-1.1,1.6-1.7,2.5c-0.7,0.9-1.3,1.7-2,2.5c-0.6,0.8-1.2,1.5-1.7,2
			c-0.5,0.6-0.8,0.9-1,1.1c-0.4,0.4-0.9,0.8-1.5,1.4c-0.6,0.5-1.3,1-2,1.5c-0.7,0.5-1.5,0.8-2.2,1
			C319.3,367.7,318.6,367.7,318,367.5z M332,337.3c-0.4-0.2-0.8-0.6-1-1c-0.2-0.4-0.3-0.9-0.2-1.5c0.1-0.5,0.3-1,0.7-1.5
			c0.4-0.5,0.8-0.9,1.2-1.2c0.5-0.4,1.1-0.6,1.8-0.6c1.1,0,1.7,0.5,2.1,1.5c0.1,0.4,0.1,0.8,0,1.3c-0.1,0.4-0.2,0.9-0.4,1.3
			c-0.2,0.4-0.5,0.8-0.8,1.1c-0.3,0.3-0.7,0.6-1.1,0.7c-0.4,0.2-0.8,0.2-1.2,0.2C332.7,337.5,332.3,337.4,332,337.3z"/>
		<path class="st13" d="M355.3,354.5c0.4-0.3,0.7-0.3,1,0c0.1,0.2,0.2,0.3,0.1,0.6c0,0.2-0.1,0.4-0.2,0.6c-0.1,0.2-0.2,0.4-0.4,0.6
			c-0.1,0.2-0.3,0.4-0.4,0.5c-0.3,0.4-0.5,0.9-0.8,1.2c-0.3,0.4-0.6,0.8-1,1.2c-0.7,0.8-1.4,1.7-2,2.5c-0.7,0.8-1.4,1.6-2.1,2.4
			c-0.6,0.7-1.4,1.4-2.2,2.1c-0.8,0.7-1.7,1.1-2.6,1.4c-0.6,0.2-1.3,0.2-2.1,0c-0.8-0.1-1.4-0.5-1.8-1.1c-0.4-0.5-0.6-1.2-0.6-2
			c0-0.8,0.1-1.5,0.3-2.1c0.1-0.6,0.2-0.9,0.1-0.9c0,0-0.2,0.1-0.5,0.5c-0.1,0.1-0.3,0.3-0.6,0.6c-0.3,0.3-0.6,0.6-0.8,0.8
			c-0.9,0.9-1.7,1.7-2.6,2.4c-0.5,0.4-1,0.7-1.5,1.1c-0.5,0.4-1.1,0.6-1.7,0.7c-0.4,0.1-0.7,0.1-1.2,0.1c-0.4,0-0.8,0-1.2-0.2
			c-0.2-0.1-0.3-0.1-0.5-0.2c-0.1-0.1-0.3-0.1-0.5-0.2c-0.3-0.2-0.5-0.4-0.7-0.8c-0.2-0.4-0.3-0.7-0.4-1.1c-0.2-0.8-0.2-1.6-0.1-2.4
			c0.1-0.8,0.4-1.5,0.7-2.3c0.3-0.7,0.7-1.5,1.1-2.2c0.4-0.7,0.8-1.4,1.2-2c0.5-0.7,0.9-1.5,1.4-2.2c0.5-0.7,0.9-1.5,1.4-2.3
			c0.4-0.7,0.8-1.3,1.3-2c0.4-0.7,0.8-1.4,1.2-2.1c0.2-0.3,0.3-0.6,0.4-0.8c0.1-0.3,0.2-0.6,0.3-0.9c0.1-0.4,0.2-0.9,0.2-1.2
			c0-0.4,0.3-0.6,0.8-0.8c0.4-0.1,0.8-0.1,1.2,0c0.4,0.1,0.8,0.1,1.2,0.1c0.1,0,0.3,0,0.6-0.1c0.3,0,0.5-0.1,0.8-0.1
			c0.3,0,0.5,0,0.7,0.1c0.2,0.1,0.3,0.2,0.4,0.4c0.2,0.4,0.2,0.8,0,1.3c-0.1,0.5-0.3,0.9-0.4,1.3c-0.3,0.8-0.7,1.6-1.2,2.4
			c-0.5,0.8-0.9,1.5-1.4,2.2c-0.5,0.8-1,1.7-1.5,2.5c-0.5,0.8-1,1.7-1.5,2.5c-0.5,0.8-1.1,1.6-1.6,2.5c-0.5,0.8-1,1.7-1.5,2.6
			c-0.2,0.4-0.3,0.8-0.5,1.3c-0.2,0.5-0.2,0.9,0,1.3c0.3,0.4,0.7,0.6,1.1,0.4c0.5-0.2,1-0.4,1.5-0.8c0.5-0.4,1-0.8,1.4-1.2
			c0.4-0.4,0.7-0.8,0.9-1c0.3-0.3,0.5-0.6,0.8-0.9c0.2-0.3,0.5-0.7,0.7-1c0.4-0.5,0.9-1.1,1.3-1.7c0.4-0.6,0.8-1.1,1.3-1.7
			c0.5-0.7,1.1-1.6,1.6-2.5c0.8-1.2,1.5-2.4,2.3-3.7c0.8-1.3,1.4-2.6,1.8-4c0.1-0.2,0.1-0.4,0.2-0.6c0.1-0.2,0.1-0.3,0.2-0.4
			c0.1-0.2,0.2-0.4,0.2-0.5c0.1-0.1,0.2-0.3,0.4-0.4c0.3-0.1,0.7-0.2,1.1-0.3c0.3-0.1,0.6-0.1,0.9-0.1c0.3,0,0.6,0,0.9,0.1
			c0.3,0,0.6,0,0.9,0c0.3,0,0.6-0.1,0.9-0.1c0.3,0,0.5,0.1,0.6,0.2c0.1,0.1,0.2,0.3,0.2,0.5c0,0.2,0,0.4-0.1,0.7
			c-0.1,0.3-0.1,0.5-0.2,0.7c-0.1,0.4-0.3,0.8-0.5,1.2c-0.2,0.4-0.5,0.8-0.7,1.1c-0.5,0.9-1,1.6-1.5,2.3c-0.8,1.2-1.6,2.5-2.3,3.8
			c-0.7,1.3-1.4,2.6-2.2,3.8c-0.7,1.1-1.4,2.3-1.8,3.6c-0.6,1.7-0.6,2.6,0.1,2.7c0.4,0.1,0.7,0,1-0.2c0.3-0.2,0.6-0.5,0.9-0.6
			c0.3-0.3,0.6-0.5,0.9-0.8c0.3-0.3,0.5-0.6,0.8-0.8c0.3-0.3,0.5-0.6,0.7-0.8c0.2-0.3,0.5-0.5,0.7-0.8c0.7-0.8,1.3-1.6,1.9-2.4
			c0.6-0.8,1.2-1.6,1.7-2.5c0.1-0.1,0.2-0.3,0.3-0.5C354.9,354.8,355.1,354.6,355.3,354.5z"/>
		<path class="st13" d="M347.7,367.8c-0.2-0.1-0.3-0.2-0.3-0.3c0-0.1,0-0.3,0-0.6c0-0.6,0.3-1.1,0.7-1.6c0.4-0.5,0.8-0.9,1.1-1.4
			c1.4-1.9,2.6-3.9,3.7-5.9c1.1-2,2.3-4,3.6-6c0.5-0.8,1.1-1.7,1.6-2.5c0.6-0.8,1-1.7,1.2-2.7c0.1-0.4,0.2-0.7,0.2-1.1
			c0-0.4,0.3-0.7,0.7-0.8c0.4-0.2,0.9-0.3,1.4-0.3c0.5,0,1,0,1.4,0c0.4-0.1,0.8-0.1,1.2-0.1c0.5,0,0.9,0.1,1.1,0.4
			c0.2,0.3,0.3,0.5,0.2,0.9c-0.1,0.3-0.1,0.6-0.2,0.9c-0.1,0.2-0.1,0.4-0.2,0.6c-0.1,0.2-0.1,0.4-0.1,0.6c0,0,0.1-0.2,0.4-0.4
			c0.3-0.2,0.6-0.4,1-0.7c0.4-0.3,0.7-0.5,1.1-0.7c0.3-0.2,0.5-0.4,0.6-0.4c0.5-0.3,1.1-0.6,1.7-0.9c0.6-0.3,1.2-0.4,1.9-0.4
			c0.9,0,1.7,0.2,2.4,0.7c0.7,0.5,1,1.3,1.1,2.3c0,0.3,0,0.5,0,0.7c0,0.2,0,0.5,0,0.7c0.2-0.1,0.3-0.2,0.4-0.3
			c0.1-0.1,0.2-0.2,0.3-0.3c0.1-0.1,0.1-0.1,0.2-0.1c0.3-0.4,0.6-0.7,1-1c0.6-0.6,1.3-1.1,2.1-1.6c0.6-0.3,1.2-0.6,1.8-0.8
			c0.6-0.2,1.3-0.3,1.9-0.4c0.6-0.1,1.2-0.1,1.7,0c0.5,0.1,0.9,0.3,1.4,0.8c0.1,0.1,0.2,0.2,0.3,0.3c0.1,0.1,0.2,0.2,0.3,0.4
			c0.3,0.6,0.4,1.3,0.3,2.1c-0.1,0.7-0.2,1.4-0.4,2.1c-0.5,1.2-1,2.4-1.7,3.5c-0.7,1.1-1.4,2.2-2.1,3.3c-0.5,0.7-0.9,1.5-1.4,2.2
			c-0.5,0.7-0.9,1.5-1.4,2.2c-0.1,0.2-0.3,0.4-0.5,0.8c-0.2,0.4-0.5,0.7-0.7,1.1c-0.2,0.4-0.3,0.8-0.4,1.1c-0.1,0.4,0,0.6,0.2,0.8
			c0.2,0.2,0.5,0.3,0.8,0.2c0.3-0.1,0.6-0.2,0.8-0.3c0.7-0.3,1.3-0.7,1.9-1.3c0.6-0.5,1.1-1.1,1.7-1.6c1-0.9,1.9-1.9,2.6-3.1
			c0.8-1.1,1.5-2.2,2.3-3.3c0.1-0.2,0.3-0.5,0.6-0.8c0.2-0.3,0.5-0.3,0.8-0.1c0.4,0.3,0.5,0.7,0.2,1.2c-0.2,0.6-0.6,1.2-1,1.8
			c-0.4,0.6-0.9,1.2-1.4,1.8c-0.5,0.6-0.8,0.9-1,1.1c-0.5,0.7-1.1,1.4-1.7,2.1c-0.6,0.7-1.2,1.3-2,1.8c-0.4,0.3-0.7,0.6-1,0.8
			c-0.3,0.3-0.7,0.5-1,0.8c-0.5,0.4-1.1,0.7-1.7,1.1c-0.7,0.3-1.3,0.6-2.1,0.7c-0.7,0.1-1.4,0.2-2.1,0.1c-0.7-0.1-1.3-0.4-1.8-0.8
			c-0.5-0.4-0.8-1-0.8-1.6c-0.1-0.6,0-1.3,0.2-1.9c0.2-0.6,0.4-1.3,0.7-1.9c0.3-0.6,0.6-1.2,0.8-1.6c0.5-0.8,0.9-1.6,1.3-2.4
			c0.4-0.8,0.9-1.6,1.4-2.3c0.5-0.7,0.9-1.3,1.4-2c0.5-0.6,0.9-1.3,1.3-2c0.2-0.4,0.4-0.8,0.6-1.2c0.2-0.4,0.3-0.8,0.4-1.3
			c0.1-0.3,0.1-0.6,0.1-0.9c0-0.3-0.2-0.5-0.6-0.6c-0.4-0.2-0.7-0.1-1.2,0.1c-0.4,0.2-0.8,0.5-1.1,0.7c-1.3,1-2.5,2.2-3.5,3.7
			c-1,1.5-1.9,2.9-2.8,4.3c-1,1.6-2,3.2-2.9,4.8c-0.9,1.6-1.9,3.2-2.9,4.8c-0.2,0.3-0.4,0.6-0.6,1c-0.2,0.3-0.5,0.6-0.8,0.8
			c-0.3,0.1-0.6,0.2-0.9,0.2c-0.3,0-0.7,0-1,0c-0.2,0-0.4,0-0.7,0c-0.3,0-0.6,0-0.9-0.1c-0.3,0-0.6-0.1-0.8-0.1
			c-0.3-0.1-0.4-0.2-0.5-0.3c-0.1-0.2-0.2-0.3-0.1-0.6c0-0.2,0.1-0.4,0.2-0.6c0.1-0.2,0.2-0.4,0.3-0.6c0.1-0.2,0.2-0.4,0.3-0.5
			c1.3-2,2.5-4,3.7-6.1c1.2-2,2.4-4.1,3.6-6.1c0.1-0.1,0.3-0.5,0.7-1.1c0.4-0.6,0.7-1.3,1-2c0.3-0.7,0.5-1.3,0.6-1.9
			c0.1-0.5-0.1-0.8-0.6-0.7c-0.9,0.1-1.7,0.5-2.5,1.3c-0.8,0.7-1.5,1.4-2.1,2c-0.7,0.7-1.4,1.5-2,2.3c-0.6,0.8-1.2,1.7-1.8,2.5
			c-1,1.5-2,3-3.1,4.5c-1,1.5-2,3-3,4.6c-0.1,0.2-0.2,0.5-0.3,0.8c-0.1,0.3-0.2,0.6-0.4,0.9c-0.1,0.3-0.3,0.6-0.5,0.8
			c-0.2,0.2-0.4,0.4-0.7,0.5c-0.1,0-0.1,0-0.2,0c-0.1,0-0.1,0.1-0.2,0.1c-0.2,0.1-0.5,0.1-0.9,0.1c-0.5,0-1,0-1.5,0
			c-0.5,0-1,0-1.4,0C348.1,367.9,347.8,367.9,347.7,367.8z"/>
	</g>
	<text transform="matrix(1 0 0 1 211.6745 417.5338)" class="st13 st14 st15">SOLICODE</text>
</g>
</svg>
